<svg width="20" height="20" viewBox="0 0 20 20" fill="none" xmlns="http://www.w3.org/2000/svg">
<path d="M10 9.16683C10.8241 9.16683 11.6297 8.92249 12.3149 8.46458C13.0001 8.00678 13.5342 7.35603 13.8495 6.59468C14.1648 5.83332 14.2474 4.99554 14.0866 4.18729C13.9258 3.37904 13.529 2.6366 12.9462 2.05389C12.3636 1.47117 11.6212 1.07433 10.8129 0.913561C10.0046 0.752786 9.16683 0.835303 8.4055 1.15066C7.64412 1.46603 6.99338 2.00009 6.53554 2.68529C6.0777 3.37049 5.83333 4.17608 5.83333 5.00016C5.83466 6.10483 6.27406 7.16386 7.05518 7.94498C7.8363 8.72608 8.89533 9.16549 10 9.16683ZM10 2.50016C10.4944 2.50016 10.9778 2.64679 11.3889 2.92149C11.8001 3.19619 12.1205 3.58664 12.3097 4.04345C12.4989 4.50027 12.5484 5.00293 12.452 5.48788C12.3555 5.97284 12.1174 6.4183 11.7677 6.76793C11.4182 7.11756 10.9727 7.35566 10.4877 7.45213C10.0027 7.54858 9.50008 7.49908 9.04325 7.30986C8.5865 7.12064 8.19603 6.80021 7.92132 6.38908C7.64662 5.97797 7.5 5.49462 7.5 5.00016C7.5 4.33712 7.76339 3.70124 8.23223 3.23239C8.70108 2.76355 9.337 2.50016 10 2.50016ZM2.5 18.3335V15.0002C2.50132 13.8955 2.94073 12.8365 3.72185 12.0553C4.50297 11.2742 5.56201 10.8348 6.66666 10.8335H13.3333C14.438 10.8348 15.497 11.2742 16.2782 12.0553C17.0592 12.8365 17.4987 13.8955 17.5 15.0002V18.3335C17.5 18.5545 17.4122 18.7665 17.2559 18.9227C17.0997 19.079 16.8877 19.1668 16.6667 19.1668C16.4457 19.1668 16.2337 19.079 16.0774 18.9227C15.9212 18.7665 15.8333 18.5545 15.8333 18.3335V15.0002C15.8333 14.3372 15.5699 13.7012 15.1011 13.2324C14.6322 12.7636 13.9963 12.5002 13.3333 12.5002H6.66666C6.00362 12.5002 5.36774 12.7636 4.8989 13.2324C4.43006 13.7012 4.16667 14.3372 4.16667 15.0002V18.3335C4.16667 18.5545 4.07887 18.7665 3.92259 18.9227C3.76631 19.079 3.55435 19.1668 3.33333 19.1668C3.11232 19.1668 2.90036 19.079 2.74407 18.9227C2.5878 18.7665 2.5 18.5545 2.5 18.3335Z" fill="#041E42"/>
</svg>
