<svg width="16" height="16" viewBox="0 0 16 16" fill="none" xmlns="http://www.w3.org/2000/svg">
<path d="M10.6354 2.58447C12.522 2.58447 14.051 4.13698 14.051 6.31051C14.051 10.6575 9.39345 13.1416 7.84094 14.0731C6.2884 13.1416 1.63086 10.6575 1.63086 6.31051C1.63086 4.13698 3.18337 2.58447 5.04638 2.58447C6.20145 2.58447 7.2199 3.20548 7.84094 3.82648C8.46188 3.20548 9.48036 2.58447 10.6354 2.58447ZM8.42094 12.2746C8.96799 11.9294 9.46174 11.586 9.92377 11.2183C11.775 9.74655 12.8089 8.13811 12.8089 6.31051C12.8089 4.84493 11.8545 3.82648 10.6354 3.82648C9.96719 3.82648 9.24436 4.18045 8.71897 4.70458L7.84094 5.58269L6.9628 4.70458C6.43744 4.18045 5.71459 3.82648 5.04638 3.82648C3.84163 3.82648 2.87287 4.85487 2.87287 6.31051C2.87287 8.13876 3.90746 9.74655 5.75744 11.2183C6.22008 11.586 6.71378 11.9294 7.26089 12.274C7.44654 12.3914 7.63039 12.5038 7.84094 12.6292C8.05141 12.5038 8.23527 12.3914 8.42094 12.2746Z" fill="#041E42"/>
</svg>
