<svg width="24" height="24" viewBox="0 0 24 24" fill="none" xmlns="http://www.w3.org/2000/svg">
<g clip-path="url(#clip0_1_1859)">
<path d="M5.15625 5.90674C4.8975 5.90674 4.6875 6.11674 4.6875 6.37549C4.6875 6.63424 4.8975 6.84424 5.15625 6.84424C5.415 6.84424 5.625 6.63424 5.625 6.37549C5.625 6.11674 5.415 5.90674 5.15625 5.90674Z" fill="#041E42"/>
<path d="M22.0746 9.91558L21.3964 8.55907C21.1566 8.07944 20.6746 7.78155 20.1386 7.78155H16.2181V4.50044C16.2181 3.72508 15.5873 3.09424 14.8119 3.09424H1.4062C0.630797 3.09424 0 3.72504 0 4.50044V16.6874C0 17.4628 0.630797 18.0936 1.4062 18.0936H2.81241C2.81241 18.8133 3.08452 19.4706 3.53081 19.9685H0.46875C0.209859 19.9685 0 20.1784 0 20.4373C0 20.6961 0.209859 20.906 0.46875 20.906H23.5303C23.7892 20.906 23.9991 20.6961 23.9991 20.4373C23.9991 20.1784 23.7892 19.9685 23.5303 19.9685H22.3432C22.7895 19.4705 23.0616 18.8133 23.0616 18.0936C23.0616 18.0669 23.0603 18.0403 23.0595 18.0137C23.6062 17.8207 23.999 17.2992 23.999 16.6874V14.0963C23.999 13.5493 24.1073 14.0599 22.0746 9.91558ZM21.3657 10.5939L22.7719 13.4063H18.093V10.5939H21.3657ZM0.937453 14.3438H1.87491V15.2812H0.937453V14.3438ZM5.62477 19.9685C4.59094 19.9685 3.74986 19.1274 3.74986 18.0936C3.74986 17.9659 3.76252 17.8403 3.78783 17.7181C3.96412 16.8493 4.73667 16.2187 5.62477 16.2187C6.51286 16.2187 7.28545 16.8492 7.4617 17.7181C7.46184 17.7188 7.46198 17.7194 7.46212 17.72C7.48706 17.8402 7.49967 17.9659 7.49967 18.0936C7.49967 19.1275 6.65859 19.9685 5.62477 19.9685ZM5.62477 15.2812C4.42378 15.2812 3.36389 16.0506 2.97314 17.1561H1.4062C1.14773 17.1561 0.937453 16.9458 0.937453 16.6874V16.2186H2.34366C2.60255 16.2186 2.81241 16.0087 2.81241 15.7499V13.875C2.81241 13.6161 2.60255 13.4062 2.34366 13.4062H0.937453V4.50044C0.937453 4.24197 1.14773 4.03169 1.4062 4.03169H14.8119C15.0704 4.03169 15.2806 4.24197 15.2806 4.50044C15.2806 4.84914 15.2806 16.0321 15.2806 17.1562H8.27616C7.8847 16.05 6.82523 15.2812 5.62477 15.2812ZM7.71872 19.9685C8.16506 19.4705 8.43713 18.8133 8.43713 18.0936C8.79703 18.0936 17.2835 18.0936 17.4368 18.0936C17.4368 18.8133 17.7089 19.4706 18.1552 19.9685H7.71872ZM20.2492 19.9685C19.2153 19.9685 18.3743 19.1274 18.3743 18.0936C18.3743 17.9659 18.3869 17.8403 18.4122 17.7181C18.5885 16.8493 19.3611 16.2187 20.2492 16.2187C21.1372 16.2187 21.9098 16.8492 22.0861 17.7181C22.0862 17.7188 22.0864 17.7194 22.0865 17.72C22.1115 17.8402 22.1241 17.9659 22.1241 18.0936C22.1241 19.1275 21.283 19.9685 20.2492 19.9685ZM23.0616 16.6874C23.0616 16.8433 22.9847 16.9813 22.8673 17.0666C22.4515 16.0087 21.417 15.2813 20.2492 15.2813C19.0482 15.2813 17.9883 16.0506 17.5975 17.1562H16.218V8.719H20.1385C20.3172 8.719 20.4779 8.81838 20.5578 8.97827L20.8969 9.65646H17.6243C17.3654 9.65646 17.1555 9.86636 17.1555 10.1252V13.8751C17.1555 14.1339 17.3654 14.3438 17.6243 14.3438H23.0616V16.6874Z" fill="#041E42"/>
<path d="M12.9368 5.90674H7.03076C6.77187 5.90674 6.56201 6.11664 6.56201 6.37549C6.56201 6.63433 6.77187 6.84424 7.03076 6.84424H12.9368C13.1957 6.84424 13.4055 6.63433 13.4055 6.37549C13.4055 6.11664 13.1956 5.90674 12.9368 5.90674Z" fill="#041E42"/>
<path d="M12.9369 7.78125H8.90576C8.64687 7.78125 8.43701 7.99116 8.43701 8.25C8.43701 8.50884 8.64687 8.71875 8.90576 8.71875H12.9369C13.1958 8.71875 13.4056 8.50884 13.4056 8.25C13.4056 7.99116 13.1957 7.78125 12.9369 7.78125Z" fill="#041E42"/>
<path d="M20.249 17.1562C19.732 17.1562 19.3115 17.5768 19.3115 18.0937C19.3115 18.6106 19.7321 19.0312 20.249 19.0312C20.7659 19.0312 21.1864 18.6106 21.1864 18.0937C21.1864 17.5768 20.7659 17.1562 20.249 17.1562Z" fill="#041E42"/>
<path d="M5.62495 17.1562C5.10802 17.1562 4.6875 17.5768 4.6875 18.0937C4.6875 18.6106 5.10806 19.0312 5.62495 19.0312C6.14189 19.0312 6.56241 18.6106 6.56241 18.0937C6.56241 17.5768 6.14189 17.1562 5.62495 17.1562Z" fill="#041E42"/>
</g>
<defs>
<clipPath id="clip0_1_1859">
<rect width="24" height="24" fill="white"/>
</clipPath>
</defs>
</svg>
